#!OML:ASF X:\für Bonn\!DataBase\2005_08_12_Daniel\c3d\Daniel.ASF
:FULLY-SPECIFIED
:DEGREES
238
root 11.6039 16.7139 -3.98246 167.453 -28.0858 -173.675
lowerback 12.6151 -2.05695 0.630248
upperback 3.93478 -2.97856 -0.359359
thorax -2.98794 -1.61378 -0.27669
lowerneck 5.34557 -3.79432 -11.3323
upperneck 20.7951 -8.75754 8.12188
head 6.23889 -5.37881 4.07426
rclavicle 4.61677e-014 -2.3059e-014
rhumerus -44.8146 -29.422 -62.6961
rradius 15.59
rwrist 28.3603
rhand -16.5511 17.1715
rfingers 7.12502
rthumb 9.66848 -12.5866
lclavicle 4.61677e-014 -2.3059e-014
lhumerus -44.4192 33.0366 50.762
lradius 30.7688
lwrist -17.6794
lhand 4.05944 -3.23973
lfingers 7.12502
lthumb 29.4724 24.4418
rfemur 2.08498 -5.97507 27.2218
rtibia 40.479
rfoot -27.2174 7.46748
rtoes -3.66409
lfemur -9.6643 -0.988748 7.86937
ltibia 44.3692
lfoot -19.9021 12.606
ltoes -5.02793
239
root 11.6889 16.7333 -4.04462 167.761 -27.0584 -174.094
lowerback 12.5953 -1.93533 0.53651
upperback 3.96563 -2.84 -0.474492
thorax -2.945 -1.54741 -0.366009
lowerneck 5.32474 -3.70225 -11.3482
upperneck 20.7428 -8.6246 8.10818
head 6.2112 -5.31738 4.07944
rclavicle -1.42827e-013 2.62396e-014
rhumerus -44.7843 -29.7297 -62.4524
rradius 15.5345
rwrist 29.0688
rhand -16.5535 16.9828
rfingers 7.12502
rthumb 9.6662 -12.7754
lclavicle -1.42827e-013 2.62396e-014
lhumerus -44.9079 33.2741 51.0838
lradius 30.988
lwrist -17.7347
lhand 3.89511 -3.59714
lfingers 7.12502
lthumb 29.3156 24.1119
rfemur 2.12937 -5.12539 27.5148
rtibia 40.2641
rfoot -27.1089 7.3813
rtoes -3.59893
lfemur -10.0482 -0.374391 7.06389
ltibia 45.4364
lfoot -19.9862 11.1958
ltoes -4.75533
240
root 11.7723 16.7559 -4.10657 168.084 -26.0283 -174.524
lowerback 12.5709 -1.80473 0.438529
upperback 3.9865 -2.68959 -0.59594
thorax -2.90978 -1.4749 -0.461015
lowerneck 5.29846 -3.61622 -11.4074
upperneck 20.7106 -8.50849 8.12087
head 6.19547 -5.26644 4.09916
rclavicle 9.88954e-015 4.77083e-015
rhumerus -44.7967 -30.1773 -62.1081
rradius 15.4652
rwrist 29.9
rhand -16.5303 16.8718
rfingers 7.12502
rthumb 9.68858 -12.8854
lclavicle 9.88954e-015 4.77083e-015
lhumerus -45.3851 33.5518 51.459
lradius 31.2007
lwrist -17.8837
lhand 3.75232 -3.87988
lfingers 7.12502
lthumb 29.1792 23.8529
rfemur 2.19555 -4.36561 27.7336
rtibia 40.0091
rfoot -26.9292 7.37675
rtoes -3.51271
lfemur -10.4538 0.0390406 6.10342
ltibia 46.4959
lfoot -20.1096 10.0959
ltoes -4.33782
241
root 11.8535 16.7836 -4.16994 168.417 -24.9835 -174.961
lowerback 12.538 -1.67728 0.344935
upperback 4.00123 -2.54292 -0.729571
thorax -2.87692 -1.40412 -0.570551
lowerneck 5.2387 -3.53971 -11.4021
upperneck 20.6801 -8.38393 8.05717
head 6.17985 -5.20878 4.08248
rclavicle 4.41302e-014 9.54166e-015
rhumerus -44.7877 -30.7066 -61.748
rradius 15.3447
rwrist 30.7989
rhand -16.567 16.7265
rfingers 7.12502
rthumb 9.6531 -13.0323
lclavicle 4.41302e-014 9.54166e-015
lhumerus -45.8489 33.8561 51.8254
lradius 31.3662
lwrist -18.0647
lhand 3.6398 -4.04832
lfingers 7.12502
lthumb 29.0718 23.7031
rfemur 2.28975 -3.606 27.9147
rtibia 39.7008
rfoot -26.7107 7.43311
rtoes -3.27898
lfemur -10.8774 0.379706 5.01616
ltibia 47.5303
lfoot -20.2485 9.24189
ltoes -4.85455
242
root 11.9328 16.8094 -4.23324 168.723 -23.9201 -175.353
lowerback 12.4955 -1.54384 0.319266
upperback 4.01904 -2.38075 -0.872214
thorax -2.83803 -1.32581 -0.730099
lowerneck 5.17925 -3.45256 -11.4098
upperneck 20.672 -8.25804 8.03701
head 6.17303 -5.15065 4.08228
rclavicle 2.61899e-014 -1.19271e-014
rhumerus -44.7478 -31.1278 -61.5137
rradius 15.2517
rwrist 31.4651
rhand -16.5455 16.6115
rfingers 7.12502
rthumb 9.6739 -13.1464
lclavicle 2.61899e-014 -1.19271e-014
lhumerus -46.2106 34.0665 52.2929
lradius 31.4825
lwrist -18.1619
lhand 3.49809 -4.15448
lfingers 7.12502
lthumb 28.9364 23.6202
rfemur 2.41709 -2.90953 28.09
rtibia 39.3498
rfoot -26.4023 7.56146
rtoes -3.01689
lfemur -11.3266 0.873376 3.92359
ltibia 48.5544
lfoot -20.36 8.44014
ltoes -6.00091
243
root 12.0112 16.839 -4.29797 169.043 -22.866 -175.746
lowerback 12.4594 -1.41804 0.272452
upperback 4.0051 -2.22766 -0.990671
thorax -2.83346 -1.25096 -0.850264
lowerneck 5.22492 -3.35125 -11.5064
upperneck 20.6067 -8.12115 8.01764
head 6.13313 -5.09597 4.10102
rclavicle -1.31695e-014 3.18055e-015
rhumerus -44.6916 -31.487 -61.2433
rradius 15.139
rwrist 32.0706
rhand -16.4789 16.473
rfingers 7.12502
rthumb 9.73817 -13.2818
lclavicle -1.31695e-014 3.18055e-015
lhumerus -46.6774 34.3677 52.733
lradius 31.6468
lwrist -18.2621
lhand 3.44532 -4.19396
lfingers 7.12502
lthumb 28.886 23.5893
rfemur 2.56158 -2.23895 28.234
rtibia 38.9521
rfoot -26.0388 7.72336
rtoes -2.71645
lfemur -11.8165 1.16454 2.70139
ltibia 49.5428
lfoot -20.4509 8.0297
ltoes -7.24956
244
root 12.0881 16.8679 -4.36341 169.337 -21.785 -176.123
lowerback 12.4183 -1.29084 0.2564
upperback 4.01564 -2.07252 -1.13036
thorax -2.80185 -1.17618 -1.01057
lowerneck 5.20364 -3.24907 -11.5945
upperneck 20.5708 -7.98229 8.03118
head 6.11398 -5.03599 4.12712
rclavicle -1.03865e-014 1.74931e-014
rhumerus -44.5942 -31.9492 -60.9912
rradius 14.9935
rwrist 32.6605
rhand -16.3808 16.3568
rfingers 7.12502
rthumb 9.83275 -13.3936
lclavicle -1.03865e-014 1.74931e-014
lhumerus -47.1247 34.6938 53.1744
lradius 31.842
lwrist -18.2497
lhand 3.38055 -4.13377
lfingers 7.12502
lthumb 28.8241 23.6601
rfemur 2.75607 -1.54965 28.3729
rtibia 38.524
rfoot -25.6282 7.90721
rtoes -2.35832
lfemur -12.3072 1.55526 1.45803
ltibia 50.4929
lfoot -20.5121 7.55157
ltoes -8.69861
245
root 12.163 16.8981 -4.42965 169.623 -20.6799 -176.437
lowerback 12.377 -1.15779 0.284237
upperback 3.9961 -1.90008 -1.23705
thorax -2.80055 -1.09161 -1.16317
lowerneck 5.13661 -3.15614 -11.6542
upperneck 20.5835 -7.84787 7.99196
head 6.11583 -4.97936 4.12934
rclavicle 1.88845e-015 1.43125e-014
rhumerus -44.4487 -32.169 -60.8856
rradius 14.9095
rwrist 32.9575
rhand -16.2494 16.167
rfingers 7.12502
rthumb 9.95955 -13.5774
lclavicle 1.88845e-015 1.43125e-014
lhumerus -47.5885 35.0266 53.6417
lradius 31.9925
lwrist -18.2038
lhand 3.25649 -4.08694
lfingers 7.12502
lthumb 28.7056 23.7271
rfemur 2.95442 -0.824741 28.5721
rtibia 38.0622
rfoot -25.1368 8.06556
rtoes -1.8044
lfemur -12.8566 1.98097 0.23955
ltibia 51.4036
lfoot -20.5885 7.02161
ltoes -10.0179
246
root 12.232 16.9271 -4.49543 169.889 -19.5789 -176.742
lowerback 12.3259 -1.02763 0.340221
upperback 4.0029 -1.73137 -1.36162
thorax -2.76688 -1.0099 -1.35016
lowerneck 4.92217 -3.09487 -11.5912
upperneck 20.6541 -7.7247 7.87659
head 6.15519 -4.91833 4.08123
rclavicle 1.93815e-015 -2.22639e-014
rhumerus -44.2905 -32.4952 -60.7772
rradius 14.8179
rwrist 33.3072
rhand -16.1137 16.0539
rfingers 7.12502
rthumb 10.0904 -13.6842
lclavicle 1.93815e-015 -2.22639e-014
lhumerus -48.0314 35.4127 54.0763
lradius 32.1405
lwrist -18.1277
lhand 3.19387 -4.04664
lfingers 7.12502
lthumb 28.6458 23.7775
rfemur 3.18034 -0.155666 28.7181
rtibia 37.6011
rfoot -24.5981 8.26987
rtoes -1.40443
lfemur -13.4181 2.32719 -1.03593
ltibia 52.2668
lfoot -20.717 6.5672
ltoes -10.9163
247
root 12.2947 16.9552 -4.56068 170.131 -18.4654 -176.99
lowerback 12.2939 -0.907957 0.447736
upperback 3.99693 -1.56877 -1.46818
thorax -2.75668 -0.930798 -1.54589
lowerneck 4.69788 -3.04889 -11.4567
upperneck 20.7308 -7.60993 7.68988
head 6.19468 -4.86033 3.99709
rclavicle -1.59028e-015 2.38542e-014
rhumerus -44.0409 -32.6632 -60.8038
rradius 14.7214
rwrist 33.4793
rhand -15.9923 15.8981
rfingers 7.12502
rthumb 10.2076 -13.8343
lclavicle -1.59028e-015 2.38542e-014
lhumerus -48.4894 35.874 54.4491
lradius 32.1979
lwrist -18.1156
lhand 3.07345 -4.02332
lfingers 7.12502
lthumb 28.5307 23.8202
rfemur 3.40746 0.474132 28.8689
rtibia 37.1634
rfoot -24.0272 8.55037
rtoes -0.947001
lfemur -14.0254 2.64952 -2.30177
ltibia 53.1045
lfoot -20.8717 6.18672
ltoes -11.3828
